<svg width="34" height="34" viewBox="0 0 34 34" fill="none" xmlns="http://www.w3.org/2000/svg">
<path d="M26.0375 8.69721L21.5631 4.22281C21.4367 4.09656 21.2866 3.99644 21.1215 3.92819C20.9565 3.85993 20.7795 3.82487 20.6009 3.82501H9.26527C8.90458 3.82501 8.55866 3.9683 8.30361 4.22335C8.04856 4.4784 7.90527 4.82432 7.90527 5.18501V29.24C7.90527 29.6007 8.04856 29.9466 8.30361 30.2017C8.55866 30.4567 8.90458 30.6 9.26527 30.6H25.0753C25.436 30.6 25.7819 30.4567 26.0369 30.2017C26.292 29.9466 26.4353 29.6007 26.4353 29.24V9.65941C26.4354 9.48076 26.4004 9.30383 26.3321 9.13874C26.2638 8.97364 26.1637 8.82361 26.0375 8.69721ZM11.9003 11.339H19.5095V12.4032H11.9003V11.339ZM22.4403 23.086H11.9003V22.0218H22.4403V23.086ZM22.4403 19.5228H11.9003V18.462H22.4403V19.5228ZM22.4403 15.98H11.9003V14.9022H22.4403V15.98Z" fill="#349EFF"/>
</svg>
